<?xml version="1.0" standalone="no"?><!DOCTYPE svg PUBLIC "-//W3C//DTD SVG 1.1//EN" "http://www.w3.org/Graphics/SVG/1.1/DTD/svg11.dtd"><svg t="1676622786971" class="icon" viewBox="0 0 1024 1024" version="1.1" xmlns="http://www.w3.org/2000/svg" p-id="16705" xmlns:xlink="http://www.w3.org/1999/xlink" width="200" height="200"><path d="M630.8 458.3c-1.7-3.6-5.3-5.9-9.3-5.9h-68.1L618 344.7c1.9-3.2 2-7.1 0.1-10.3-1.8-3.2-5.2-5.2-8.9-5.2h-98.6c-4.2 0-8 2.6-9.5 6.5l-74 184.9c-1.3 3.2-0.9 6.8 1 9.6s5.1 4.5 8.5 4.5h46.8L427 685.1c-1.8 4.7 0.1 10 4.5 12.5s9.9 1.5 13.1-2.4l184.9-226c2.4-3 3-7.3 1.3-10.9zM468.1 634l39.8-106c1.2-3.2 0.7-6.7-1.2-9.5s-5.1-4.4-8.4-4.4h-46.5l65.8-164.4H591l-64.6 107.7c-1.9 3.2-2 7.1-0.1 10.3 1.8 3.2 5.2 5.2 8.9 5.2h64.6L468.1 634z m0 0" p-id="16706"></path><path d="M807.2 449.8l117.6-29c-32.5-157.2-154.1-281.3-308.3-314.4l-28.4 120c113.6 28.9 194.8 111.7 219.1 223.4z" p-id="16707"></path><path d="M815.3 511.8c0 161.4-125.8 289.6-284 289.6s-284-128.3-284-289.6 125.8-289.6 284-289.6V98.1c-223.1 0-405.6 186.2-405.6 413.7 0 227.6 182.5 413.7 405.6 413.7 223.1 0 405.7-186.2 405.7-413.7H815.3zM531.4 884.2c-202.8 0-365.1-165.5-365.1-372.4 0-190.3 142-347.5 324.5-368.2V185c-158.2 20.7-284 157.2-284 326.8 0 182 146 331 324.5 331 162.3 0 300.2-128.3 320.5-289.6h40.6c-20.3 186.2-174.4 331-361 331z" p-id="16708"></path></svg>