<?xml version="1.0" standalone="no"?><!DOCTYPE svg PUBLIC "-//W3C//DTD SVG 1.1//EN" "http://www.w3.org/Graphics/SVG/1.1/DTD/svg11.dtd"><svg t="1676622992244" class="icon" viewBox="0 0 1024 1024" version="1.1" xmlns="http://www.w3.org/2000/svg" p-id="23612" xmlns:xlink="http://www.w3.org/1999/xlink" width="200" height="200"><path d="M154.1 154.87a0.792 0.792 0 0 0-0.6 0.24c-0.16 0.15-0.24 0.37-0.24 0.59v462.37c0 0.5 0.34 0.82 0.84 0.82h231.1c15.4 0 27.88 12.33 27.88 27.54 0 15.21-12.48 27.54-27.88 27.54H154.1c-15.01 0.01-29.41-5.88-40.02-16.36-10.61-10.49-16.58-24.71-16.57-39.54V155.7c0-30.9 25.31-55.9 56.59-55.9h690.24c31.28 0 56.59 25 56.59 55.9v173.49c0 15.21-12.48 27.54-27.88 27.54-15.39 0-27.88-12.33-27.88-27.54V155.7a0.77 0.77 0 0 0-0.24-0.59 0.83 0.83 0 0 0-0.6-0.24H154.1z m0 0" fill="#444444" p-id="23613"></path><path d="M756.67 424.44c12.48 8.9 15.3 26.11 6.3 38.44L678.5 578.55l-0.42 0.55c-14.75 18.99-42.24 22.7-61.61 8.32h-0.03l-52.35-39.08c-12.29-9.17-14.72-26.44-5.44-38.58 9.28-12.14 26.77-14.54 39.05-5.37l42.85 31.97 77.19-105.69c9.02-12.34 26.44-15.13 38.93-6.23z m0 0" fill="#4E78FE" p-id="23614"></path><path d="M660.63 291.18c-85.89 0-163.87 49.56-199.45 126.79-35.58 77.22-22.2 167.87 34.22 231.84l-53.05 96.99a27.267 27.267 0 0 0 1.91 29.15c6.23 8.56 16.85 12.85 27.37 11.06l52.74-9 12.21 41.14c3.19 10.72 12.61 18.47 23.86 19.63 11.24 1.16 22.08-4.51 27.44-14.34l55.14-101.06a224.71 224.71 0 0 0 74.49-6.64l59.74 107.87c5.42 9.79 16.28 15.38 27.5 14.16 11.23-1.22 20.6-9 23.74-19.72l11.99-41.03 52.63 9c10.84 1.85 21.77-2.76 27.9-11.78 6.13-9.02 6.32-20.76 0.48-29.96L844.96 624.7c43.35-66.61 46.43-151.28 8.02-220.79-38.42-69.5-112.19-112.73-192.35-112.73zM497.27 507.64c0-89.12 73.14-161.37 163.36-161.37 90.22 0 163.36 72.25 163.36 161.37 0 89.13-73.14 161.38-163.36 161.38-90.22-0.01-163.36-72.26-163.36-161.38z m309.77 161.04l34.01 53.53-15.64-2.67c-14-2.41-27.6 5.98-31.55 19.47l-0.14 0.55-24.34-43.98c13.48-7.63 26.1-16.67 37.66-26.93v0.03z m-288.3 54.39l19.6-35.8a219.644 219.644 0 0 0 47.95 24.04l-15.27 28.04-0.14-0.44c-4-13.42-17.55-21.75-31.5-19.36l-20.64 3.52zM215.99 271.91c0-15.21 12.48-27.54 27.88-27.54h299.12c15.39 0 27.88 12.33 27.88 27.54 0 15.21-12.48 27.54-27.88 27.54H243.87c-15.4-0.01-27.88-12.34-27.88-27.54z m27.88 110.15c-15.4 0-27.88 12.33-27.88 27.54 0 15.21 12.48 27.54 27.88 27.54H372.1c15.4 0 27.88-12.33 27.88-27.54 0-15.21-12.48-27.54-27.88-27.54H243.87z m0 0" fill="#444444" p-id="23615"></path></svg>