<?xml version="1.0" standalone="no"?><!DOCTYPE svg PUBLIC "-//W3C//DTD SVG 1.1//EN" "http://www.w3.org/Graphics/SVG/1.1/DTD/svg11.dtd"><svg t="1676600755889" class="icon" viewBox="0 0 1024 1024" version="1.1" xmlns="http://www.w3.org/2000/svg" p-id="1116" xmlns:xlink="http://www.w3.org/1999/xlink" width="200" height="200"><path d="M938.2 863.8h-27.2V130.2c0-16.6-13.4-30-30-30h-158.4c-16.6 0-30 13.4-30 30v222.8H457.8v-51.8c0-16.6-13.4-30-30-30h-146.2c-16.6 0-30 13.4-30 30v51.8H181c-37.4 0-67.8 29.8-67.8 66.6v444.2H85.8c-16.6 0-30 13.4-30 30s13.4 30 30 30h852.4c16.6 0 30-13.4 30-30s-13.4-30-30-30z m-87.2 0h-40.2V621c0-1.8 2-3.8 5-3.8h35.2v246.6zM752.4 160.2h98.4v193.4c-2.6-0.2-5.2-0.4-8-0.4h-90.6V160.2z m-441 171.2h86.2v21.8h-86.2v-21.8z m-138.4 88.2c0-3.6 3.6-6.6 7.8-6.6h662c4.2 0 8 3 8 6.6v137.8h-35.2c-35.8 0-65 28.6-65 63.8v242.6h-84.2V621c0-35.2-29.2-63.8-65-63.8H292c-35.8 0-65 28.6-65 63.8v242.6h-54v-444z m303.8 197.8h124.8c3 0 5 2 5 3.8v242.6h-129.8V617.4z m-60 246.4h-129.8V621c0-1.8 2-3.8 5-3.8h124.8v246.6zM298 500.8c0-16.6 13.4-30 30-30h237.4c16.6 0 30 13.4 30 30s-13.4 30-30 30H328c-16.4 0-30-13.4-30-30z" fill="#040000" p-id="1117"></path></svg>