<?xml version="1.0" standalone="no"?><!DOCTYPE svg PUBLIC "-//W3C//DTD SVG 1.1//EN" "http://www.w3.org/Graphics/SVG/1.1/DTD/svg11.dtd"><svg t="1676806387970" class="icon" viewBox="0 0 1024 1024" version="1.1" xmlns="http://www.w3.org/2000/svg" p-id="9416" id="mx_n_1676806387971" xmlns:xlink="http://www.w3.org/1999/xlink" width="200" height="200"><path d="M512.5 942c-188.2 0-341.4-153.1-341.4-341.4 0-319.8 307.1-499 320.2-506.4L512.5 82l21.2 12.1c13.1 7.5 320.2 186.6 320.2 506.4 0 188.3-153.2 341.5-341.4 341.5z m0.1-760.2C447.7 226 256.5 375.4 256.5 600.6c0 141.2 114.8 256 256 256s256-114.8 256-256c0-226-191.1-374.8-255.9-418.8z" p-id="9417" fill="#ebebeb"></path><path d="M512.5 813.9c-23.6 0-42.7-19.1-42.7-42.7s19.1-42.7 42.7-42.7c70.6 0 128-57.4 128-128 0-23.6 19.1-42.7 42.7-42.7s42.7 19.1 42.7 42.7c-0.1 117.7-95.8 213.4-213.4 213.4z" p-id="9418" fill="#ebebeb"></path></svg>