<?xml version="1.0" standalone="no"?><!DOCTYPE svg PUBLIC "-//W3C//DTD SVG 1.1//EN" "http://www.w3.org/Graphics/SVG/1.1/DTD/svg11.dtd"><svg t="1676603997403" class="icon" viewBox="0 0 1024 1024" version="1.1" xmlns="http://www.w3.org/2000/svg" p-id="1837" xmlns:xlink="http://www.w3.org/1999/xlink" width="200" height="200"><path d="M282.331429 935.497143h-40.228572v-81.92h40.228572V170.422857H159.451429v683.154286h38.034285v81.92h-38.034285c-45.348571 0-81.92-36.571429-81.92-81.92V170.422857c0-45.348571 36.571429-81.92 81.92-81.92h123.611428c45.348571 0 81.92 36.571429 81.92 81.92v683.154286c0 45.348571-64.365714 81.92-109.714286 81.92h27.062858z" fill="#333333" p-id="1838"></path><path d="M885.76 931.84h-54.857143v-81.92h54.857143V441.782857H364.982857v408.137143h54.857143v81.92h-54.857143c-45.348571 0-81.92-36.571429-81.92-81.92V441.782857c0-45.348571 36.571429-81.92 81.92-81.92h520.777143c45.348571 0 81.92 36.571429 81.92 81.92v408.137143c0 45.348571-37.302857 81.92-81.92 81.92z" fill="#333333" p-id="1839"></path><path d="M19.017143 849.92h985.965714v86.308571H19.017143zM482.011429 526.628571h102.4v87.04h-102.4zM482.011429 677.302857h102.4v87.04h-102.4zM667.062857 526.628571h102.4v87.04h-102.4zM667.062857 677.302857h102.4v87.04h-102.4z" fill="#333333" p-id="1840"></path></svg>